<?xml version="1.0"?>
<svg xmlns="http://www.w3.org/2000/svg" viewBox="0 0 64 64" width="512" height="512"><title>railway-station-train-transportation-Building</title><g id="Expand"><path d="M62,38H60V35a.983.983,0,0,0-.25-.643l.009-.007L56,29.964V24C56,13.523,45.233,5,32,5S8,13.523,8,24v5.964L4.241,34.35l.009.007A.983.983,0,0,0,4,35v3H2v2H4V61a1,1,0,0,0,1,1H59a1,1,0,0,0,1-1V40h2ZM11,29.536,14.826,34H7.174ZM10,27V25H54v2Zm11-4V19h4v4Zm6-4h4v4H27Zm6,0h4v4H33Zm6,0h4v4H39Zm6,0h3.611a10.077,10.077,0,0,1,1.319,4H45Zm0-2V15.033A14.822,14.822,0,0,1,47.143,17Zm-2,0H39V12.023a20.465,20.465,0,0,1,4,1.71Zm-6,0H33V11.037a24.266,24.266,0,0,1,4,.484Zm-6,0H27V11.521a24.266,24.266,0,0,1,4-.484Zm-6,0H21V13.733a20.465,20.465,0,0,1,4-1.71Zm-6,0H16.857A14.822,14.822,0,0,1,19,15.033Zm-3.611,2H19v4H14.07A10.077,10.077,0,0,1,15.389,19ZM56.826,34H49.174L53,29.536ZM48,36H58v2H48ZM32,7c11.7,0,21.29,7.09,21.962,16h-2.03C51.241,15.2,42.578,9,32,9S12.759,15.2,12.068,23h-2.03C10.71,14.09,20.3,7,32,7ZM6,36H16v2H6Zm6,13H10V45a1,1,0,0,1,2,0Zm-2,2h2v9H10Zm4,9V45a3,3,0,0,0-6,0V60H6V40H16V60Zm8.278-12.006h5.444L27.054,60H22.946Zm.063-2a2.751,2.751,0,0,1,.637-1.123,2.848,2.848,0,0,1,4.044,0,2.751,2.751,0,0,1,.637,1.123Zm13.937,2h5.444L41.054,60H36.946Zm.063-2a2.751,2.751,0,0,1,.637-1.123,2.848,2.848,0,0,1,4.044,0,2.751,2.751,0,0,1,.637,1.123ZM43.057,60l.719-12.95a4.783,4.783,0,1,0-9.552,0L34.943,60H29.057l.719-12.95a4.783,4.783,0,1,0-9.552,0L20.943,60H18V40h2V38H18V35a.983.983,0,0,0-.25-.643l.009-.007L13.173,29H50.827l-4.586,5.35.009.007A.983.983,0,0,0,46,35v3H44v2h2V60ZM54,49H52V45a1,1,0,0,1,2,0Zm-2,2h2v9H52Zm6,9H56V45a3,3,0,0,0-6,0V60H48V40H58Z"/><path d="M32,31a4,4,0,1,0,4,4A4,4,0,0,0,32,31Zm0,6a2,2,0,1,1,2-2A2,2,0,0,1,32,37Z"/><rect x="38" y="34" width="2" height="2"/><rect x="24" y="34" width="2" height="2"/><path d="M56.68,17.381l1.849-.762a20.852,20.852,0,0,0-1.008-2.1l-1.752.964A18.876,18.876,0,0,1,56.68,17.381Z"/><path d="M54.572,13.579,56.2,12.421A27.313,27.313,0,0,0,42.309,2.607l-.618,1.9A25.3,25.3,0,0,1,54.572,13.579Z"/></g></svg>
