<?xml version="1.0"?>
<svg xmlns="http://www.w3.org/2000/svg" viewBox="0 0 64 64" width="512" height="512"><title>hotel-Apartment-flat-condominium-Building</title><g id="Expand"><path d="M27,15H37a1,1,0,0,0,1-1,6,6,0,0,0-12,0A1,1,0,0,0,27,15Zm5-5a4.008,4.008,0,0,1,3.874,3H28.126A4.008,4.008,0,0,1,32,10Z"/><rect x="27" y="18" width="2" height="2"/><rect x="31" y="18" width="2" height="2"/><rect x="35" y="18" width="2" height="2"/><rect x="27" y="22" width="2" height="2"/><rect x="31" y="22" width="2" height="2"/><rect x="35" y="22" width="2" height="2"/><rect x="27" y="26" width="2" height="2"/><rect x="31" y="26" width="2" height="2"/><rect x="35" y="26" width="2" height="2"/><rect x="27" y="30" width="2" height="2"/><rect x="31" y="30" width="2" height="2"/><rect x="35" y="30" width="2" height="2"/><rect x="14" y="23" width="2" height="2"/><rect x="18" y="23" width="2" height="2"/><rect x="14" y="27" width="2" height="2"/><rect x="18" y="27" width="2" height="2"/><rect x="14" y="31" width="2" height="2"/><rect x="10" y="53" width="2" height="2"/><rect x="10" y="49" width="2" height="2"/><rect x="10" y="45" width="2" height="2"/><rect x="14" y="53" width="2" height="2"/><rect x="10" y="57" width="2" height="2"/><rect x="14" y="57" width="2" height="2"/><rect x="18" y="31" width="2" height="2"/><rect x="48" y="23" width="2" height="2"/><rect x="44" y="23" width="2" height="2"/><rect x="48" y="27" width="2" height="2"/><rect x="44" y="27" width="2" height="2"/><rect x="48" y="31" width="2" height="2"/><rect x="44" y="31" width="2" height="2"/><path d="M59,35H54V21h1a1,1,0,0,0,1-1V16a1,1,0,0,0-1-1H42V14a10,10,0,0,0-20,0v1H9a1,1,0,0,0-1,1v4a1,1,0,0,0,1,1h1V35H5a1,1,0,0,0-1,1v4a1,1,0,0,0,1,1H6V61a1,1,0,0,0,1,1H57a1,1,0,0,0,1-1V41h1a1,1,0,0,0,1-1V36A1,1,0,0,0,59,35Zm-7,0H42V21H52Zm2-18v2H42V17ZM31,52v4H29v2h2v2H26V52Zm2,6h2V56H33V52h5v8H33Zm7-6h2V50H22v2h2v8H20V48.031l12-3,12,3V60H40Zm-7.757-8.97a1,1,0,0,0-.486,0L17,46.719V44.781l15-3.75,15,3.75v1.938ZM32,6a8.009,8.009,0,0,1,8,8V40.97l-7.757-1.94a.976.976,0,0,0-.486,0L24,40.97V14A8.009,8.009,0,0,1,32,6ZM10,17H22v2H10Zm2,4H22V35H12ZM6,37H22v2H6Zm2,4H22v.47l-6.243,1.56A1,1,0,0,0,15,44v4a1,1,0,0,0,1.243.97L18,48.531V60H8ZM56,60H46V48.531l1.757.439A1,1,0,0,0,49,48V44a1,1,0,0,0-.757-.97L42,41.47V41H56Zm2-21H42V37H58Z"/><rect x="52" y="53" width="2" height="2"/><rect x="52" y="49" width="2" height="2"/><rect x="52" y="45" width="2" height="2"/><rect x="48" y="53" width="2" height="2"/><rect x="52" y="57" width="2" height="2"/><rect x="48" y="57" width="2" height="2"/><path d="M43.859,12.152l1.976-.3a13.941,13.941,0,0,0-5.219-8.884L39.384,4.54A11.952,11.952,0,0,1,43.859,12.152Z"/><rect x="2" y="44" width="2" height="10"/><rect x="2" y="56" width="2" height="2"/><rect x="56" y="24" width="2" height="8"/></g></svg>
