<?xml version="1.0"?>
<svg xmlns="http://www.w3.org/2000/svg" viewBox="0 0 64 64" width="512" height="512"><title>factory-industry-plant-Building</title><g id="Expand"><path d="M59,44H52V41a1,1,0,0,0-1-1H42V30h1a1,1,0,0,0,1-1V25a1,1,0,0,0-1-1H30.931L30,10.929A1,1,0,0,0,29,10H23a1,1,0,0,0-1,.929L21.069,24H17.931L17,10.929A1,1,0,0,0,16,10H10a1,1,0,0,0-1,.929L8.069,24H5a1,1,0,0,0-1,1v4a1,1,0,0,0,1,1H6V61a1,1,0,0,0,1,1H51a1,1,0,0,0,1-1V50h2V62h2V49a1,1,0,0,0-1-1H52V46h6V62h2V45A1,1,0,0,0,59,44ZM28.5,18H23.5l.142-2h4.71Zm-.428-6,.143,2H23.788l.143-2ZM23.36,20h5.28l.286,4H23.074ZM15.5,18H10.5l.142-2h4.71Zm-.428-6,.143,2H10.788l.143-2ZM10.36,20h5.28l.286,4H10.074ZM6,26H42v2H6ZM27,52v8H22V52ZM13,50V48H29v2Zm7,2v8H15V52Zm9,8V52h1a1,1,0,0,0,1-1V47a1,1,0,0,0-1-1H12a1,1,0,0,0-1,1v4a1,1,0,0,0,1,1h1v8H8V30H40V60Zm21,0H42V42h8Z"/><rect x="44" y="48" width="4" height="2"/><rect x="44" y="44" width="4" height="2"/><rect x="11" y="33" width="2" height="2"/><rect x="11" y="37" width="2" height="2"/><rect x="15" y="33" width="2" height="2"/><rect x="15" y="37" width="2" height="2"/><rect x="21" y="33" width="2" height="2"/><rect x="21" y="37" width="2" height="2"/><rect x="25" y="33" width="2" height="2"/><rect x="25" y="37" width="2" height="2"/><rect x="31" y="33" width="2" height="2"/><rect x="31" y="37" width="2" height="2"/><rect x="35" y="33" width="2" height="2"/><rect x="35" y="37" width="2" height="2"/><path d="M16,6h7a4,4,0,0,0,4-4H25a2,2,0,0,1-2,2H16a4,4,0,0,0-4,4h2A2,2,0,0,1,16,6Z"/><path d="M29,8a2,2,0,0,1,2-2h9a4,4,0,0,0,4-4H42a2,2,0,0,1-2,2H31a4,4,0,0,0-4,4Z"/><rect x="2" y="36" width="2" height="16"/><rect x="2" y="54" width="2" height="2"/><path d="M35,20v2h9a2,2,0,0,1,2,2v4h2V24a4,4,0,0,0-4-4Z"/></g></svg>
