<?xml version="1.0"?>
<svg xmlns="http://www.w3.org/2000/svg" viewBox="0 0 64 64" width="512" height="512"><title>shopping-mall-Department-store-Building</title><g id="Expand"><rect x="19" y="10" width="2" height="2"/><rect x="23" y="10" width="22" height="2"/><path d="M21,32h4a1,1,0,0,0,1-1V27a1,1,0,0,0-1-1H21a1,1,0,0,0-1,1v4A1,1,0,0,0,21,32Zm1-4h2v2H22Z"/><path d="M30,32h4a1,1,0,0,0,1-1V27a1,1,0,0,0-1-1H30a1,1,0,0,0-1,1v4A1,1,0,0,0,30,32Zm1-4h2v2H31Z"/><path d="M39,32h4a1,1,0,0,0,1-1V27a1,1,0,0,0-1-1H39a1,1,0,0,0-1,1v4A1,1,0,0,0,39,32Zm1-4h2v2H40Z"/><path d="M21,40h4a1,1,0,0,0,1-1V35a1,1,0,0,0-1-1H21a1,1,0,0,0-1,1v4A1,1,0,0,0,21,40Zm1-4h2v2H22Z"/><path d="M30,40h4a1,1,0,0,0,1-1V35a1,1,0,0,0-1-1H30a1,1,0,0,0-1,1v4A1,1,0,0,0,30,40Zm1-4h2v2H31Z"/><path d="M39,40h4a1,1,0,0,0,1-1V35a1,1,0,0,0-1-1H39a1,1,0,0,0-1,1v4A1,1,0,0,0,39,40Zm1-4h2v2H40Z"/><path d="M59,26a1,1,0,0,0-1.155-.988L48,26.556V24h1a1,1,0,0,0,1-1V19a1,1,0,0,0-1-1H46V16h2a1,1,0,0,0,1-1V7a1,1,0,0,0-1-1H16a1,1,0,0,0-1,1v8a1,1,0,0,0,1,1h2v2H15a1,1,0,0,0-1,1v4a1,1,0,0,0,1,1h1v7.576L6.845,33.012A1,1,0,0,0,6,34v4a1,1,0,0,0,1,1,1.012,1.012,0,0,0,.155-.012L8,38.856V61a1,1,0,0,0,1,1H56a1,1,0,0,0,1-1V31.169l1.155-.181A1,1,0,0,0,59,30ZM17,8H47v6H17Zm3,8H44v2H20Zm-4,4H48v2H16Zm30,4V60H42V48h1a1,1,0,0,0,1-1V43a1,1,0,0,0-1-1H21a1,1,0,0,0-1,1v4a1,1,0,0,0,1,1h1V60H18V24ZM22,46V44H42v2Zm9,2v5H29v2h2v5H24V48Zm2,7h2V53H33V48h7V60H33ZM8,34.855,16,33.6v1.975L8,36.831ZM16,37.6V54H10V38.542ZM10,56h6v4H10Zm45,4H48V56h7Zm0-6H48V32.581l7-1.1Zm2-24.855-9,1.411V28.581l9-1.412Z"/><rect x="12" y="50" width="2" height="2"/><rect x="12" y="46" width="2" height="2"/><rect x="12" y="42" width="2" height="2"/><rect x="50" y="50" width="2" height="2"/><rect x="50" y="46" width="2" height="2"/><rect x="50" y="42" width="2" height="2"/><rect x="50" y="38" width="2" height="2"/><rect x="50" y="34" width="2" height="2"/><rect x="4" y="46" width="2" height="14"/><rect x="59" y="33" width="2" height="17"/><rect x="59" y="52" width="2" height="2"/></g></svg>
